<?xml version="1.0" encoding="utf-8"?>
<!-- Generator: Adobe Illustrator 23.0.3, SVG Export Plug-In . SVG Version: 6.00 Build 0)  -->
<svg version="1.1" xmlns="http://www.w3.org/2000/svg" xmlns:xlink="http://www.w3.org/1999/xlink" x="0px" y="0px"
	 viewBox="0 0 200 200" style="enable-background:new 0 0 200 200;" xml:space="preserve">
<style type="text/css">
	.st0{fill:#F90B0B;}
	.st1{fill:none;stroke:#000000;stroke-width:3;stroke-miterlimit:10;}
	.st2{fill:#F90606;}
	.st3{fill:none;stroke:#000000;stroke-miterlimit:10;}
	.st4{fill:#F4EDED;stroke:#000000;stroke-miterlimit:10;}
	.st5{fill:#FFFFFF;stroke:#000000;stroke-width:3;stroke-miterlimit:10;}
</style>
<g id="BODY">
	<g>
		<circle class="st0" cx="100" cy="100" r="99.5"/>
		<path d="M100,1c54.6,0,99,44.4,99,99s-44.4,99-99,99S1,154.6,1,100S45.4,1,100,1 M100,0C44.8,0,0,44.8,0,100s44.8,100,100,100
			s100-44.8,100-100S155.2,0,100,0L100,0z"/>
	</g>
	<g>
		<line class="st1" x1="199.5" y1="100.5" x2="-0.5" y2="100.5"/>
		<line class="st2" x1="199.5" y1="100.5" x2="-0.5" y2="100.5"/>
	</g>
	<g>
		<g>
			<path class="st3" d="M58.8,146.2"/>
		</g>
	</g>
	<path class="st4" d="M0,100.5h200c0,0,2,15.3-4.5,34c-4.1,11.7-13.2,24.8-23,36.1c-3.6,4.2-15.3,12.8-29,18.9
		c-14.8,6.6-31.9,10.5-40,10.5c-23,0-36-5.5-49-10.5c-3.4-1.3-22-12.9-33-27c-10.2-13.2-16-25-18-33C1.1,119.7,1.2,109.6,0,100.5z"
		/>
</g>
<g id="BUTTON">
	<circle class="st5" cx="100" cy="101" r="24.5"/>
</g>
</svg>
